<svg xmlns="http://www.w3.org/2000/svg" viewBox="0 0 512 512">
  <defs>
    <linearGradient id="bg" x1="0" y1="0" x2="1" y2="1">
      <stop offset="0%" stop-color="#ffffff"/>
      <stop offset="100%" stop-color="#f5f5f5"/>
    </linearGradient>
    <linearGradient id="zFill" x1="0" y1="0" x2="1" y2="1">
      <stop offset="0%" stop-color="#2a0808"/>
      <stop offset="100%" stop-color="#1a0303"/>
    </linearGradient>
  </defs>
  <rect width="512" height="512" rx="96" fill="url(#bg)"/>
  
  <path d="
    M 160 280
    C 140 210 170 160 210 160
    C 260 160 430 160 470 160
    C 500 160 495 210 470 250
    C 450 280 420 310 390 340
    L 250 470
    C 200 520 170 510 210 490
    C 260 470 440 470 470 470
    C 500 470 495 420 480 380
    L 470 340
  " 
  fill="none" 
  stroke="url(#zFill)" 
  stroke-width="70" 
  stroke-linecap="round" 
  stroke-linejoin="round"/>
  
  <path d="
    M 440 215
    C 420 245 370 315 310 405
    C 285 445 255 445 285 460
    C 355 490 465 335 495 275
    C 510 245 465 225 440 215
    Z
  " fill="#ffffff"/>
</svg>
