<svg xmlns="http://www.w3.org/2000/svg" viewBox="0 0 512 512">
  <defs>
    <linearGradient id="bg" x1="0" y1="0" x2="1" y2="1">
      <stop offset="0%" stop-color="#ffffff"/>
      <stop offset="100%" stop-color="#f5f5f5"/>
    </linearGradient>
    <linearGradient id="zFill" x1="0" y1="0" x2="1" y2="1">
      <stop offset="0%" stop-color="#2a0808"/>
      <stop offset="100%" stop-color="#1a0303"/>
    </linearGradient>
  </defs>
  <rect width="512" height="512" rx="96" fill="url(#bg)"/>
  
  <path d="
    M 180 260
    C 155 205 190 155 240 155
    L 400 155
    C 445 155 460 195 445 235
    L 220 440
    C 185 475 165 465 200 445
    L 400 445
    C 445 445 460 410 450 380
  " fill="none" stroke="url(#zFill)" stroke-width="75" stroke-linecap="round" stroke-linejoin="round"/>
  
  <path d="
    M 430 210
    C 405 245 370 305 315 395
    C 290 430 270 430 295 445
    C 350 475 475 290 505 240
    C 520 220 460 195 430 210
    Z
  " fill="#ffffff"/>
</svg>
